<?xml version="1.0" encoding="utf-8"?>
<!-- Generator: Adobe Illustrator 16.0.4, SVG Export Plug-In . SVG Version: 6.00 Build 0)  -->
<!DOCTYPE svg PUBLIC "-//W3C//DTD SVG 1.1//EN" "http://www.w3.org/Graphics/SVG/1.1/DTD/svg11.dtd">
<svg version="1.1" id="Layer_1" xmlns="http://www.w3.org/2000/svg" xmlns:xlink="http://www.w3.org/1999/xlink" x="0px" y="0px"
	 width="851.1px" height="533.4px" viewBox="0 0 851.1 533.4" enable-background="new 0 0 851.1 533.4" xml:space="preserve">
<path id="GE" fill="none" stroke="#656565" stroke-width="0.4252" stroke-miterlimit="1" d="M772.9,403.2l2.4-2.1l4.899,0.399
	l4.6,1.101v2.5l1.1,3.2l4.2,2.1l2.5,0.3l1.2,1.5l-2.5,2.5l2.5,3.9v5.3l-1.8-1.2l-3.101-0.4L843.3,435.1L841.199,433l-3.5-0.899
	l-4,2.2l-5,1.1l-5.5,0.3l-9.5,1.8l-5.6-5.899l-2.8-1.3l-4.7,2.2L797,432.7l-6-0.6l-0.301-1.4l1-1.6l0.7-4.2l-2.3-10.5l-3.7-4.899
	l-7.2-2.4l-5.699-3.4L772.9,403.2z"/>
<polygon id="SY" fill="none" stroke="#656565" stroke-width="0.4252" stroke-miterlimit="1" points="721.9,527 722.3,533.4 
	786.199,533.4 789,514.301 788.3,509 791.8,505.301 796.199,503.6 803.199,496 804.1,494.1 802.6,493.301 801.1,493.4 798,496 
	789.1,498 782,497 772.9,501.2 766.3,503.301 760.5,503.4 750.699,500.1 743.199,502.9 739.1,503.7 733.3,501.9 731.199,502.7 
	732.4,508.4 730.9,510.1 727.199,513.9 724.4,514 722.3,513.2 720.5,519 720.3,521.1 721.9,523.6 "/>
<path id="TR" fill="none" stroke="#656565" stroke-width="0.4252" stroke-miterlimit="1" d="M830.1,495.5l-2.6,0.4l-3.301,2.7
	l-1.3-0.5l-2.6-4.8l-2.3,1l-8.5-0.601l-1.601-1L804,494.2l-1.5-0.8H800.9L798,496l-8.9,2l-7.1-1l-9.2,4.2l-6.7,2.101l-5.7,0.1
	l-9.8-3.2L743,503l-4,0.7l-5.7-1.7l-2.101,0.7l1.2,5.7l-5.3,5.5l-2.8,0.1l-2.101-0.8l-1.699-2.8l0.699-2l4.301-4.5l-6.4-0.399
	L716,506.2l-2.301-0.8l-7-2.6l-3,2l-5.399,6.2l-1.3-0.7l-6.7,2.2l-6.2-0.601l-7.5-5.5l-14-5.899l-3.1,0.899l-1.4,5.8l-1.5,2.9
	l-4.8-0.2l-6.2,0.601l-3.4-4.101l-1.899-3.5l-3.7,0.3l-3.5-1.899l-4.2,2.3l-1.6-0.5l0.899-3.601l-1.1-0.899l-6.6-0.2l-1.101-1.1
	l2.4-3.2l-2.8-2l-1.301-1.2l0.301-4.2l-0.301-2.6l-1.899-0.7l-3.8-2.3l-1.9,0.399l-1.5-2.5l1.6-2.8l1.7,1.4l2.5,0.1l0.7-2.1
	l-1.3-1.7l-1.5-1.2l3.5-2l-0.4-1.5l-1.7-0.8l-0.5-2.9l-1-1.399L611.5,463.5l3.3-3.1l-1-1l-7,1.5h-2.3l0.5-1.3l0.399-4.4l1.101-2.3
	l6.3-5.4l1.5,0.101l3.6-1.2l1.9,1.3l5.3,0.7l-0.5-1.9l2.6-0.399v1.6l6.9-0.5l6.4,0.8l0.399-1.3l-3.399-1.5l1.699-1.399L650.5,442h-6
	l-1.9-1.5l-1.2-4.5l2.9-0.399l5.6,0.7l5.601-0.5l6.199,1.899l6.2-1l1.7-2.7l4.2-2.399l14.7-6.8l12.3-0.101l7.899,0.3L712,423.1
	l2.6,4.6l3,1.4l5.7-0.601l1.7,2.2l3.899,3.8l3.101-0.8l2.5,0.8l4.5,3.101l15.6,2l5.2-1.2l5.6-0.7l10.8,1.2l12.4-5.5l2.4-1.4
	l6.199,0.601l3.4-0.2l4.7-2.2l2.8,1.3l10.6,11.2l-2.1,6l0.8,3.5l3.7,1l4.4,0.7l3,2.8l-3.9,2.2l-0.2,2.7l-2.8,2.1l-0.2,2.3l0.9,6.7
	l0.899,2.8l2.101,1.2l-1.2,4.9l-1.1,2l2.899,2.899l-0.3,1.801l0.6,2.6L830.1,495.5L830.1,495.5z M627.1,424.4l2,5.3l2.3,1.9
	l2.6,1.399l7.101,2.801l-4,4.1l-2.8-0.7l-3.7-1l-4.8,1.101l-4.4,0.6l-2.2,3.7l-9.899,6.2l-1.4,1.3l-1.8-0.4l0.2-1.7l2.6-1.6l0.8-2.2
	l-1.7-0.3l-3.1-0.9l0.3-2.3l3.4-5.899l2.899-4.101l-2.8-2.6l3.2-3.8l4.1-1.5L627.1,424.4L627.1,424.4z"/>
<path id="AZ" fill="none" stroke="#656565" stroke-width="0.4252" stroke-miterlimit="1" d="M845.9,464.801l0.3,1.8l2.4,4.2
	l-4.2-0.7l-5.2-1.2l-3.3-3.9l-4-3.399l-3.3-4.7l4.6-0.1l2.7,1.199l2.3,2.101l5.301-0.3l0.3,2L845.9,464.801z M849.4,436.4l-3.2-0.4
	l-3-0.899l-1.899-2l-3.5-0.9l-4,2.2l2.5,1.9l-0.4,1.3l3.8,1.399l1.3,1.9l-1.8,2l2.3,4.6l3.801,3.2l-1.2,2.2h-1.4l-0.399,1.101
	l4.8,4.6l3,0.8l1.1,0.2v-21.9L849.4,436.4z"/>
<polygon id="IR" fill="none" stroke="#656565" stroke-width="0.4252" stroke-miterlimit="1" points="823.3,475.7 825.5,476.9 
	824.3,481.801 823.199,483.801 826.1,486.7 825.8,488.5 826.5,491.1 830.1,495.5 836.5,510.801 838.199,513.5 843.3,514.801 
	845.5,514.801 845.6,518 844.6,520.301 845.6,522.801 846,527 844,528.9 842.199,530.6 840.5,533.4 851.1,533.4 851.1,469.2 
	848.8,470.7 847.9,470.6 839.199,468.9 835.9,465 831.9,461.6 830.8,459.7 828.6,457 824.8,459.1 824.5,461.801 821.8,463.9 
	821.5,466.1 822.4,472.9 "/>
<polygon id="IQ" fill="none" stroke="#656565" stroke-width="0.4252" stroke-miterlimit="1" points="786.199,533.4 840.5,533.4 
	842.8,530.1 846.4,524.801 844.6,520.301 845.6,518 845.5,514.801 843.3,514.801 838.199,513.5 836.5,510.801 829.9,495.5 
	827.699,495.7 824.3,498.6 822.9,498 820.4,493.301 817.8,494.301 809.8,493.7 807.8,492.7 804,494 803.199,496 796.199,503.6 
	791.699,505.1 788.3,509 789,514.301 787.8,522 "/>
<polygon id="AM" fill="none" stroke="#656565" stroke-width="0.4252" stroke-miterlimit="1" points="851.199,459.6 847.199,458.5 
	845.699,457 842.3,454 842.699,452.801 844,453 845.3,450.7 841.5,447.5 839.199,443 841,441 839.699,439.1 836,437.6 
	836.3,436.301 833.8,434.5 829.4,435.5 823.3,435.9 820.8,436.4 813.8,437.7 818.8,443 816.699,449 817.5,452.4 821.199,453.5 
	825.699,454.2 828.6,457 833,457 835.9,458.2 837.9,460.2 843.5,459.9 843.8,461.9 845.9,464.801 846.199,466.6 848.6,470.7 
	851.199,469.4 "/>
<path id="GR" fill="none" stroke="#656565" stroke-width="0.4252" stroke-miterlimit="1" d="M588.3,527.6L587.4,525l-5.5-1.3
	l-8.2-1.399l1.101-3.9l1.899-0.9l1.101,1.301l2.199-0.5l1.601,0.6l1.1,1.7l3.3,0.399l3.9-0.5l3.7,1.2l4.5-0.6l2.1,1.899l0.601,1.5
	l4.8-1.199l0.8-0.801l0.7,1l-1.5,2.801l-1.601-0.2L588.3,527.6L588.3,527.6z M533.4,460l2.8-5.3l3.9-4.6l3.5-6.2l1.2-1.2l6.3-1.1
	l5-4.101l2,0.301l3.9-0.2l5.1-2.2l12.8-2.3L583.5,432l13.3,4.4l7.8-1.9l0.4-4l4-1.399l2.8,2.6l-2.9,4.101l-3.2,5.6l-1.3,1.7
	l-1.4-2.3l-6.1-0.4l-2.2-0.3L591.3,439l-1.9,1l-1.6,0.7l-3.5-1.399l-1.4,1.6l-2.4,1.5L577,442l-1.4,0.601l0.6,1.6l5.2,4.601l1.2,1.2
	l-1.5-0.101l-1.4-1.399l-3.3-0.301l1.1,2.9l1.101,0.9l-1.5,1.1l-2-2.4l-3.4-1l1,2.601l1.5,0.7l-0.3,1.3l-2.4-0.4l-5.199-6.2
	l-0.5-2.8l-0.7-0.8l-1.3,1l-1.4,1.1l-0.6,5.801l2.899,4.399l1.3,3.2l4.101,4.4l-0.8,2.199l-3-3.5l-1.801,1.101l1.4,2.2l-1.6,3.399
	l-1.9,0.3l3.4,1.7l2.3,1.5l3.3,1.601l3,2.699l4.5,1.7l-0.3,2l0.7,2.9l-0.9,3.3l-0.9-0.8l-3.699-4.2l-2.7,0.2l-3.601,1.5l0.9,2.8
	l0.5,1.3l3,1.101l0.6,1.699l-4.199,1.2l-0.9-1.899l-3.1-0.601l-0.601,1.4l1,2.5l1.2,2.2l1.7,7.1l-1.5-0.3l-3.2-1l-1.9,2.2
	L559.8,503.2l-2.7-4.8l-1.601-1.2l-1.5,2.101l-2.399-0.5l-1.5-3l-2.4-8.5l2.2-7l8-0.101l9.8,1.601l-4.6-3.601l-16.9-0.699l-5.3-7.2
	l4.1-1.8l-1.7-1.801l-2.5,0.4l-6.6-4.9L533.4,460L533.4,460z"/>
<path id="BG_1_" fill="none" stroke="#656565" stroke-width="0.4252" stroke-miterlimit="1" d="M560.9,412.6l4.2-1.9l1.9-3.399
	l-7.2-7.9l0.1-2.6l4.2-5.4h1.8l1.2,1l0.3,3.4l1.3,0.3l5.101-1.4l3.399,0.3l3.2,1.9l3.2,0.4l4.6-1.601l4.5,1.101l3.101,1.399l2.3-0.7
	l3.1-1.3l9.101-4.399l2.399-0.601l2.601,0.101l3,1.899l6.3,3.101l8.3,2l1.2,1.8l-1.9,3.1L630.3,403l-2.4,2l-1.4,6l-0.6,2.101
	l-3.2,2.399l-0.8,2.9l2.1,0.7l3,5.5l-11-0.7l-4.1,1.5l-3.4,3.8l-3.8,1.4l-0.4,4l-7.8,1.899l-4.2-1.399l-9.1-3l-3.9,1.2l-12.6,2.3
	l0.2-7l-1-2.601l-1.6-2.1l-2.801-1.7l-1.8-2.7l0.101-3.199L560.9,412.6z"/>
<path id="RS" fill="none" stroke="#656565" stroke-width="0.4252" stroke-miterlimit="1" d="M562.3,393.4l-2.4,3.4l-0.1,2.6l7.2,7.9
	l-1.9,3.399l-4.2,1.8l-0.9,3.5l-0.1,3l-6,0.7l-3.1,0.9l-3.9,1.8l-2.4-0.9l-1.699,0.9l-2.9,3.7l-7.5-9.2l0.5-1.7l-0.6-2l2.199-0.2
	l1.2-2.199l-2.3-0.9h-0.2l-1.399-1.6l-4.601-2l-0.7-1.301l-3.5-2.399L522.6,401.5l3.3-1.199l-1-2.801l-1.8-1.699l1.3-0.601l1.4,0.2
	l0.899-1.4l-5.3-3.699l-0.2-2l2.4-4.4v-2.2l-1.3-0.399L520.699,382l1-4.899l2.2,0.5l-0.2-1l-1.899-0.4l-1.8-1l-0.5-2.899l-0.7-2.101
	l-1.8-2.899l11.899-4.2h5.601l5.899,5.399l1.4,4.7l2.3,1.7l5.3,2.7l-1,1.7l0.9,1.699l-1.3,1.301l7.1,3.399l1.9,1.3l3.6-3.3l3.4,1.9
	l-2.801,1.7L566,391.5l-2-0.1L562.3,393.4z"/>
<path id="ME" fill="none" stroke="#656565" stroke-width="0.4252" stroke-miterlimit="1" d="M524.3,426.301l-2.5-1.5l-3.9-4.301
	l-4.1-2.6l-0.4-2l1.1-1.9l-0.6-4.5l2-2l1.7-2.699l2.5,0.5l0.8-0.4l-1-1.7l0.7-1.3l2.2-0.4l0.399,1.101l3.601,2.5l0.7,1.3l4.5,1.9
	l1.399,1.6l2.5,0.9l-1.2,2.199l-2.1,0.101l0.6,2.1l-0.6,1.9l-3.3-0.601l-1.601-0.3l-2.399,1.601l-1.4,4l0.5,2L524.3,426.301
	L524.3,426.301z"/>
<path id="BA" fill="none" stroke="#656565" stroke-width="0.4252" stroke-miterlimit="1" d="M502.9,410.9l-0.5-0.3l1.101-1.7
	l-2.4-2.1L498,402.5l-2.101-1.1l-5.7-6.6l-3.7-2.9l-0.5-2.2l-2.3-4.1l-2.2-1.8l-0.6-3.301l1.4-3.6l4.399,3.1l2.8-2.399l5.4-0.9
	l6.4,1.7h6.699l6.5,0.601l4.4,3.5l3.3-1.101l1.4,0.4v2.2l-2.4,4.399l0.2,2l2.4,1.3l2.899,2.4L525.8,395.5l-1.4-0.199l-1.3,0.6l2.1,2
	l0.7,2.7l-1.3,0.3l-2.4,0.9l-2,0.3l-0.7,1.3l0.9,1.8l-0.7,0.4l-2.399-0.4l-1.7,2.7l-2,2l0.6,4.5l-1.2,1.9l-6.3-3.301l-2.1-2.399
	l-1.4,1.2L502.9,410.9z"/>
<path id="MK" fill="none" stroke="#656565" stroke-width="0.4252" stroke-miterlimit="1" d="M567,435.4l-4.9,2.2l-4.1,0.1l-2-0.2
	l-5,4.101l-6.4,1.1l-2.1-1.8l-2.801-4l-1.199-6l0.6-3.6l3.7-4.8l1.7-0.9l2.6,0.8l0.6-0.399l3.601-1.301l2.6-0.8l6-0.7l1.8,2.801
	l2.7,1.6l1.4,1.9l1.399,3L567,435.4L567,435.4L567,435.4L567,435.4z"/>
<path id="BG" fill="none" stroke="#656565" stroke-width="0.4252" stroke-miterlimit="1" d="M534.6,363l6.9-0.5l6.399-4.899l2.4-4.2
	l6.7-11.2l2-3.399l7.899-0.301l1.5-3.899l4.5,1.399l6-0.3l8.7,1l1.6,2.101l2.601,0.8l5.2-2.8l6.8-0.7l3.399-2l1.301-1.601l5.5-0.199
	L617.4,336l9.101,12.7l2.8,2.5l1.5,5.7l-1.7,8.101l0.4,3.6l-0.2,1.9l2,2.399l2,2.4l4.2-0.601l1.8,0.101l3.899-1.601l1.9,0.101
	l1.5,0.5l1.6,0.899l0.101,1.8l-3.2,4.601l-3.5,0.5l-4.7,4.8l-0.6,1L633,398l-9.601-2.199L618.3,393l-3-1.899L612.699,391
	L610.3,391.6l-7.7,3.7l-4.5,2l-2.3,0.6l-3.101-1.399l-4.5-1.101l-4.699,1.601l-3.2-0.4l-3.2-1.9l-3.4-0.3l-2.8,0.7l-2.2,0.7
	l-1.399-0.3l-0.2-3.4l-6-5l2.8-2l-3.1-1.8l-3.9,3.2l-2.1-1.601l-6.7-3l1.4-1.399L548.4,378.9l1.101-1.6l-5.101-2.7l-2.5-1.9
	l-1.3-4.699l-5.6-4.9L534.6,363z"/>
<path id="HR" fill="none" stroke="#656565" stroke-width="0.4252" stroke-miterlimit="1" d="M502.4,410.6l-7.2-6l-6-2.3l-2.899,0.2
	l-2.7-0.801l-4.3-4.199l-4.2-3.801l-1.2-2.5l3.4-0.199l-2.601-1.4l-2.2-1.8l-1.6-2.4l-0.4-2.5l0.4-1.6l-3-3.5l-4.1-2.3l-1.7,4.199
	l-2.4,3.101l-2.8-0.8l-1.7-4.4l-0.8-3.6l3.1-0.601l4.9-0.399l1.2,0.5l2-1.801l1.6-0.1l1.9,1.6h3.1l1.2,0.7l1.6-0.3l0.101-2.3
	l0.8-2.4l1.8-0.7l1.601-0.199l0.699-1l-0.699-4.2l4.399-1.3l1.5-1.9l1.5-0.1l1.3-1.801l2.2,0.9l12.9,8.4l4.899,2l8.9-1.601l1.8,2.9
	l0.7,2.1l0.5,2.9l1.6,1l2,0.399l0.2,1l-2.2-0.5l-1.3,5.101l-1.399,0.2l-4.4-3.5l-6.5-0.601h-6.7l-6.399-1.7l-5.4,0.9l-2.8,2.4
	l-4.4-3.101l-1.399,3.601l0.6,3.3l2.3,2l2.2,3.899l0.5,2.2l3.7,2.9l5.7,6.6l2.1,1.101l3.1,4.3l2.4,2.1L502.4,410.6L502.4,410.6z
	 M503.6,411.4l1.4-1.2l2.1,2.4l6.1,3.1l0.5,2l-0.6,0.4l-5.2-4.2L503.6,411.4L503.6,411.4z"/>
<path id="AL" fill="none" stroke="#656565" stroke-width="0.4252" stroke-miterlimit="1" d="M533.4,460L531,454.6L527.9,452
	l-2.8-2.3l0.2-3.1l-1-1.7l1.7-4l-0.5-2.2l0.6-2.2l-0.7-4l2-2v-2.3l-2.5-2l-0.5-0.6l-0.1-2.2l-0.3-1.9l1.3-3.8l2.399-1.6l4.9,0.8
	l2.4,2.3l5.1,6.8l-0.8,1.101l-0.601,4l1.2,5.7l2.8,4l2.101,1.8l-1.2,1.3l-3.4,6.1L536.3,454.6L533.4,460L533.4,460z"/>
<path id="HU" fill="none" stroke="#656565" stroke-width="0.4252" stroke-miterlimit="1" d="M517.3,367.1l-9,1.8l-4.9-2l-12.899-8.4
	l-2.301-3.3l-1-2.5l1.9-4.2l-0.3-3.199l0.899-0.801l1.9-1.199l-2.4-3.101l1.7-0.7l4.7,0.9l0.7-2.4l5.2-2.8l5.199,2l11.101,0.5
	l1.6-3.2l5.4-1.3l8.5-0.7l2.3-1.8l2.5-2.2l2.9-1h7.199l4.101,2.5l5.1-0.399l3.2,1.8l7.9,3.1l-1.5,3.9l-7.9,0.3l-2,3.4l-9.2,15.5
	l-6.3,4.8l-7.1,0.5h-5.301l-11.399,4L517.3,367.1z"/>
<path id="SI" fill="none" stroke="#656565" stroke-width="0.4252" stroke-miterlimit="1" d="M454.6,357.5l8.4,1.5l3.399,0.601
	l4.7-3.2l2.3-0.7l3.8,0.8l1.2-1.1l4.7,0.4l1.5-2.9l2.7-0.1l0.899,2.3l2.301,3.3l-2.2-0.8l-1.3,1.8h-1.5l-1.5,1.9l-4.4,1.3l0.7,4.2
	l-0.7,1L478,368l-1.801,0.7l-0.699,2.101l-0.2,2.6l-1.601,0.3L472.3,373h-3l-1.9-1.6l-1.6,0.1l-2,1.801l-1.2-0.5l-5.5,0.6l-1.9,0.3
	l2.101-1.899l0.3-1.5l-2.5-1.801l-1.7-3.6l1.3-1.6l-2.6-2.101l1.5-1.1l1.7-1.101L454.6,357.5z"/>
<polygon id="TN" fill="none" stroke="#656565" stroke-width="0.4252" stroke-miterlimit="1" points="391,530.2 389.5,533.4 
	417,533.4 423.199,527 424.8,524.2 423.5,517.6 421.3,516.4 417.8,510.801 418.6,507 423.3,500.9 424,499.1 422.4,497.1 420.1,499 
	416,501.301 413.9,498.5 411.9,494.7 407.5,493.301 402.6,494.301 396.1,498.7 392.6,503.1 391.2,505.7 "/>
<polygon id="DZ" fill="none" stroke="#656565" stroke-width="0.4252" stroke-miterlimit="1" points="269.8,531.7 270.4,533.4 
	389.5,533.4 391,530.2 391.1,506.2 392.6,503.1 395.6,499.5 388.8,500.4 385,499.9 382,496.801 377.4,498.1 374.1,499.801 
	368.2,496.6 364.5,499.1 361.2,500.801 351.9,502 346.3,500.301 334.9,500.301 328.6,502.9 325.1,501.6 320.4,503.9 309.8,504.6 
	297.5,508.5 291.8,514.5 290.4,515.9 284.7,514.9 280.7,516.6 275.3,519.6 271.7,524.301 265.9,526 265.8,528.301 "/>
<polygon id="MA" fill="none" stroke="#656565" stroke-width="0.4252" stroke-miterlimit="1" points="270.6,533.4 269.8,531.7 
	267.6,530 265.8,528.301 265.9,526 262,525.801 257.1,524.2 255.1,521 245.4,524.7 236.5,524.5 231.1,521.9 226.9,517.2 
	223.9,514.5 220,516.1 216.6,525.7 213.5,533.4 "/>
<path id="AT" fill="none" stroke="#656565" stroke-width="0.4252" stroke-miterlimit="1" d="M405.6,342.5l3.5-0.3l2.8,2.101l0.9,1.5
	l2.5-0.3l1.3-2.801l4.2-0.6l1.7,2.6l2.699-0.1l2.7-0.6l3.5-2.5l4.5,0.3l1.7-1.3l7,0.5l0.6,2.1l1.7,0.2l1.2-1.8l-3.8-6.801l7-4.1
	l1-3.1l6.7-0.9l2.1-0.1l1.9,1.3l4.5-0.8l4-5l9.399,2.899l5.8,0.7l6.101-0.6l2.2,1.6v2.9l0.1,2.399l3.6,3.5l0.5,1.2l-3,1.7
	L495.5,340.7l-4.7-0.899l-1.7,0.7l2.4,3.1l-2.801,2l0.301,3.2l-2,4.399l-2.5,0.101L483,356.2l-4.7-0.399l-1.2,1.1l-3.8-0.8l-2.3,0.7
	l-4.7,3.2l-7.7-1.301L440,355l-2.9-3.899L434.6,350l-7.8,0.4l-4.9,3.4l-2.6-0.4l-5-2.5l-1.9,1.6L406,349.2l-0.601-1.6l0.9-3.101
	L405.6,342.5L405.6,342.5z"/>
<path id="SZ" fill="none" stroke="#656565" stroke-width="0.4252" stroke-miterlimit="1" d="M405.6,342.5l0.8,1.801l-1,3.3l0.9,1.7
	l6.3,3.199l1.9-1.6l1.5,0.7l0.3,5.3l-1.4-0.7H413l-1.101,1.101l1.101,1.6l-1,2.2l-2-1.3l-2.3,0.6l-1.601,0.3l-2.8-3.199l-1.2,1.399
	l-2.5,6.101l-1.384,1.258L396.9,365.4l-1.5-2.2l-1.699-0.899l-2.5-3.101l-3.101,1.9l-1.7,4l-1.8,1.1l-3.3-0.8l-5.2,0.8l-4.2,2.3
	l2.2-4.3l-1.1-4.3l-1.5-1.4l-2.5,0.801l-5,4.199l-1.4-0.8l1.4-1.899l-0.3-3.301l2.3-2.6l2.899-3.9l2.801-1.999l1.8-2.801l0.7-2.899
	l4.463,0.582l2.684-2.205l2.052,0.823l5.7-1.101l2.101,0.601l1.8-1.801l1.6-0.6l4.2,1.1h3.1L405.6,342.5L405.6,342.5z"/>
<path id="ES" fill="none" stroke="#656565" stroke-width="0.4252" stroke-miterlimit="1" d="M185,426.2l-0.2-2.899l1.6-6.7
	L182.8,412l-2.8-1.1l0.1-2.7l7.101-3.7l3.5-0.399l2.1-4l3.8-1.5l8.8,2.6l3.2,0.4l5.5-0.8l7.601-1.5L229,402l21.2,1.9l5.5-2.5
	l3.5,0.9l3.5,2l5.5,0.6l2.5,1.6l2.3,0.2l1.8,2.4l6.3,1.7l8.101,3.8l7.699,0.3l6.801-1l5.6,4.6l2.3-0.5l5.3,0.7l4.7,1l2.601-1.1
	l3.399-0.101l0.7,1.4l0.4,6l-2.101,1.5l-8.6,4.7l-1.9,2.2L301,439.2l-0.5,3.8l-2.2,1.4l-3.601,4.3l-2.5,3.101l-5.8,9.899l2.9,6.9
	l2.899,1.8l-1.1,3l-3.7,2.1l-5.3,7.2l-1,4.4l-2.4,2l-3.8,0.3l-6.8,7.5l-4.2,3.9L261.8,500l-3.601,1.2l-2,0.601L254,501.1l-16.7,0.6
	l-4.101,3.101l-4.8,1.1l-3.2,5l-3.3,0.4l-5.6-4.101l-2.2-4.3l-0.5-3.1l-12.399-5.4l2.428-7.469L208,482.4l-0.601-2.7l-4.899-1.199
	l0.399-3.601l5.101-6.2l-1.2-1.7l-4.8-6.499l4.5-1.4l2.399-2.6l0.7-3.7l-0.6-12.5l1.1-3l7.5-4.601l-1.2-2.6l-6.6-5.5L205.1,426h-3.7
	l-5.8-1.1l-2.6-2.4l-5,2.101L185,426.2z"/>
<path id="PT" fill="none" stroke="#656565" stroke-width="0.4252" stroke-miterlimit="1" d="M201.2,494.4l-5.7,2.8l-3.2-0.8
	l-3.5-0.4l-4.5,1l-1.3-0.199l1.899-7l-0.699-7l0.8-2.601l-0.5-4.3l-3.2,0.5l-1.6-1.3l4-3.101l-1.301-2l-2.199,2.4l-2,0.5l-1.601-1.1
	l1.601-6.9l0.199-1.9l3.601-5.3l2.2-9.7l1.8-5.899l-0.3-6.4L184.4,430l0.601-3.699l3-1.7l5-2.101l2.6,2.4l5.8,1.1h3.7l4.7-1.399
	l6.6,5.5l1.2,2.6l-7.5,4.601l-1.1,3l0.2,2.899l0.399,9.601l-0.7,3.7l-2.399,2.6l-4.5,1.4l6,8.199l-5.101,6.2l-0.399,3.601
	l4.899,1.199l0.601,2.7l-4.3,4.3l-1.801,5.801L201.2,494.4L201.2,494.4z"/>
<path id="IT" fill="none" stroke="#656565" stroke-width="0.4252" stroke-miterlimit="1" d="M397.4,468.4l-4.5-3.1L392.7,460.7
	l0.899-8.7l-1.6-6.3l-2.101-3.6l3.101-1.5l4.5-0.5l5.8-4.2l3.7,4.7l2.1,6.2l-1.399,2.6l0.199,8.9l-2.399,6.8l-1.9-0.4l-3.2,0.2
	L397.4,468.4L397.4,468.4z M471.1,501.301l-3.1-0.5L462.4,496.7l-19-7.8l-1.8-1.9l1.7-4.899l2.3-1l2.7,0.399l2.5-1.399l2.399,0.7
	l5.5,2.5l11.2-1.601L476,480l1.1,1.601l-3.8,8l0.399,4.5l1.2,2.2l-3.399,4.8L471.1,501.301L471.1,501.301z M457.3,371.801
	l-7.101-2.2l-1.2,1.399l-5.699,2.4l-3.9,1l-1.6,2.4l2.399,2.699l1.2,3.801l-1.8,1.199l0.899,6.801l3.5,4.1l5.801,3.5l4.8,2.7
	l2.5,5.3l2,5.2l6.2,7.8l6.5,5l4.199,1.1l8-0.399l0.9,3.2l-2.6,2.699l12,5.601l14,7.7l3.6,3.899l2.1,3.3l-1.3,4l-3-0.5l-2.399-3.6
	l-3.2-2.3l-2.8-0.2l-3.601-3.2l-2.7,0.7l-4,5.5l-0.6,5.4l2.4,1.8l4.3,2.8l0.1,3.7l-0.3,3.2l-4.4,0.8l-2.1,3.6l-1.4,3.9l-4.1,5.7
	L482,484l-2.801-3.399l2.101-2.2l1.2-5.5l2.1-0.7l1.6-1.399l-1.899-5.7l-2.4-6.601l-1-4.1l-4-1.4L474,451.6l-2.801-2.9l-0.1-3.399
	l-1.7-1.801l-5.6,0.601l0.2-3l-3.2,0.7l-4.9-6.601l-12-4l-14.8-13l-9-7.5l-4.8-10.8l-3.9-5.8l-9.199-4.7l-5.2-1.1l-4.8,2.5l-10,5.6
	l-0.101-4.399l-3.5-0.101l-4.7-2.6L373,386.1l1.8-3.2l-3.4-2.3l-1.6-2.2l4.1-1.7l2.101-2l-1.8-4.399L371.9,368.5l4.2-2.3l5.2-0.8
	l3.3,0.8l1.8-1.1l1.7-3.812l3.101-2.088l2.5,3.101l1.699,0.899l1.4,2.4l1.416,0.658l1.384-1.258l2.5-6.101l1.2-1.399l2.8,3.199
	l3.9-0.899l2,1.3l1-2.2l-1.101-1.6L413,356.2h1.899l1.4,0.7l-0.3-5.3l3.399,1.7l2.3,0.399l4.9-3.399l7.8-0.4l2.5,1.101l2.9,3.899
	l14.6,2.5l0.601,1.5l-2.301,1.601l-0.8,0.6l2.601,2.1l-1.301,1.601l1.7,3.6l2.5,1.8L457.3,371.801L457.3,371.801z"/>
<path id="SK" fill="none" stroke="#656565" stroke-width="0.4252" stroke-miterlimit="1" d="M495.1,326.4l2.1-3.3l3.101-0.5
	l3.899,0.3l2.5-1.5l3-2.7l0.601-2.2l4.6-2.8h2l1.7-0.8l1.6,1.7l2.2-0.7l3.101-1.3l2.6,2.2l2.8,2.899l2.3-0.6l2.4-2.101l5.1-0.1
	l2,1.3l3.8-2.1l1.801,0.2h2.8l4.399,2.399l5.7,1.9l1.7,1.6l-5.6,9.2l-5.101,0.4l-4.1-2.5h-7.2l-2.899,1l-4.801,4l-4.699,0.3
	l-4.7,0.5l-4.601,1.2l-1.6,3.199l-5.8-0.199l-5.3-0.4l-5.2-2l-2.101,1.1l-0.5-1.199l-3.6-3.5l-0.1-2.4L495.1,326.4L495.1,326.4z"/>
<path id="CZ" fill="none" stroke="#656565" stroke-width="0.4252" stroke-miterlimit="1" d="M459.1,326.4l-3.5-4.7L451,320l-2.9-3.3
	l-4.1-2l-2.9-3.8l0.7-3.5l-3.101-3.899l1.7-2.101l4.5-1.7l6.5-3l6.8-1.8l5.5-1.8l-0.5-1.4l1.7-0.8l4,3l2.101-1l2.8-1.9l1.899,2.101
	l4.7,1.6l3.101,1.601l3.1-0.2l2.1,0.7l-1.6,3.5l4.1,3.6l2.601-0.7l1.399-0.5L495,300.001l2.399,0.199l5.101,1.301l0.8,1.6l2.3,2.7
	l2.7-0.601l4.8,1.5l1.3,2.101l2.9,2.6l1.399,1.4L517,313.6h-2l-4.5,2.7l-0.7,2.3l-2.9,2.6l-2.5,1.601l-3.899-0.3l-3.101,0.5
	l-2.1,3.3l-2.2-1.601l-6.1,0.601l-5.801-0.7l-9.3-2.9l-4.2,5l-4.5,0.801L461.3,326.2L459.1,326.4L459.1,326.4z"/>
<path id="CY" fill="none" stroke="#656565" stroke-width="0.4252" stroke-miterlimit="1" d="M708.1,517.5l-9.5,3.601l-2.8,0.3
	l-1.101,1.8l-0.899,1.5l-2.3-1.5l-1.301-0.5l-1,0.601L689,525.5l0.8,5.601l2.5,1l5.8-0.601l5.8-2.899l1.3-1.101l-0.8-1.6l-1.4-2.3
	l2-2.2L708.1,517.5L708.1,517.5z"/>
<path id="LU" fill="none" stroke="#656565" stroke-width="0.4252" stroke-miterlimit="1" d="M362.1,313.9l-1.8-5.8l1-1.8l2-1.601
	l1.4,1l2.699,3.4l2.5,0.8l1.2,3.7V317l-6.2-2.699l-1.911-0.165L362.1,313.9z"/>
<path id="FR" fill="none" stroke="#656565" stroke-width="0.4252" stroke-miterlimit="1" d="M404,409.6c1.2,3.2,0.3,6.1,1.399,9.1
	c0.4,3.9-1.899,6.601-2,10.3c-0.3,3.9-2.8,5.801-4.6,2.801c-4.6-0.2,1.2-4-3.7-3.801c3.101-3.8-3-1.3,0.3-4.899
	c-2.6-1.601-0.2-3.101-1.1-5.3c1.7-2.5,4.8-2.8,6.6-4.101C404.7,416.1,401.3,409.801,404,409.6z M268.3,404.9l2.7-1.4l2.399-6.3
	l1.2-5.899l0.9-4.7l1.399-0.9l-1.3-2.899l0.601-5.5l1-3.2l5.199,5.2l-6.1-9.3l1.5-4.7l-1.6-4.4l-4.9-2.1l-2.5-2.601l-2.9-7.3l-5.3-3
	l1-2.399l-3.899-0.4l-3.2-1.1l-10-3.301l-5.601-0.399l-1.399-1.8l-2.3-1l4.1-0.9l-0.5-4.2l-4.1,0.101l0.1-2.4l4.1-1.3l4.101-1.4
	l1.5,0.8l4.7-2.199l3.899-0.4l3.2,2.6l2.6,1.601l5.2-0.7l6.5-0.1l2.101-1.601l-0.5-5l-2.301-4.2l-2-4.1l7.601-0.8l4.1,4.399l9.4,1.4
	l4.2-1.3l-0.101-1.5l4.3-4.9l5.5-1.5l6.801-4.399L309.6,296.9l2.7-3.3l4.3-1.5l4.8-1.2l1.5,3.5l2.4,2.2l3.4-1l1.199,2.3l1.101,2.101
	l3.7-0.2l2.699,2l3.601,1.1l0.6,4.8l2.101,0.301l0.199-0.101l5.601-1.6l4-0.5l0.5,5l2.7,2.399l5.399,0.7l2.8,0.4l6.2,2.699
	l7.101,2.2l7.399,1.4l3.101,0.899L385.4,325.6l-3.8,7.8l-0.399,8.601l-2.4,1.899l-4.6-0.6l-0.7,2.899l-1.8,2.801L368.9,351
	L366,354.9l-2.3,2.6l0.3,3.301l-1.4,1.899l1.4,0.8l5-4.199l2.5-0.801l1.5,1.4l1.1,4.3l-2.2,4.3l2.101,2.2l1.8,3.4L373.9,377l-3,0.9
	l0.301,3l3.5,2l-1.601,3.3l1.3,4.101l3.801,2.1l3.199-0.2l0.4,4.8l-12.4,10.5l-7.6,1.7l-7.2-2.2l-4.7-2.5l-3.6,0.4l-10.5-1.6l-5.5,4
	l-3.2,6.3l-3.2,5.2l-2.3,0.899l-4.7-1l-5.3-0.7l-2.6,0.7l-1.8-1.6l-3.5-3.2l-3.601,0.7l-3.2,0.3l-7.699-0.3l-8.101-3.8l-6.3-1.7
	l-1.9-2.2l-2.199-0.4L268.3,404.9L268.3,404.9z"/>
<path id="BE" fill="none" stroke="#656565" stroke-width="0.4252" stroke-miterlimit="1" d="M321.4,290.9l6.801-3.601l4.899,0.101
	l4.3-0.9l3.801,0.7l3.699-1.2l7-0.3l2.801,2.2l4.1,0.8l2.1,1.2L360.2,296l3.3-0.8l3.6,6l-2.399,4.4l-1.4-1l-2,1.6l-1,1.801l1.8,5.8
	L356.7,313.2l-2.7-2.399l-0.5-5l-4,0.5l-5.8,1.7L341.6,307.7l-0.583-4.665l-3.617-1.234l-2.699-2l-3.7,0.2l-2.3-4.4l-3.4,1l-2.4-2.2
	l-1.199-3.7L321.4,290.9z"/>
<path id="NL" fill="none" stroke="#656565" stroke-width="0.4252" stroke-miterlimit="1" d="M377.4,260.3l0.4,2.9l-2.9,4.9h-2
	l0.101,2.8h2.399l0.4,3.2L373.4,278l-8.199,1.7l-1.9,1.4l2.5,4.399l-1,4.8l-1.8,1.4l0.399,3.5l-3.3,0.8l0.7-6.1l-2.1-1.2l-4.101-0.8
	l-2.8-2.2l-7,0.3l-3.7,1.2l-3.8-0.7l-3-3.3l2.6-2l5.9-5.4l2.9-6l2.5-4.1l3.699-0.5l1.9,2.1l-2.2,3.7v2.5l5.3,1.3l3.4-2l0.6-2.6
	l-1.6-0.6l-0.9-3.101l-2.899-0.7l0.5-4.3l3.2-2.2l5.199-1.5l6.9-0.699l2.5,1.199L377.4,260.3L377.4,260.3z"/>
<path id="IE" fill="none" stroke="#656565" stroke-width="0.4252" stroke-miterlimit="1" d="M216.7,248.7l-2.301,0.8l2.301,6
	l1.5,10.7l-2.9,4.5l-1.6,3.7l-7.7,1.5l-13.8,4.5l-4.4,2.6l-3.5,0.601l-11.2,2.2l-0.3-4.601l-3.7-0.2l-1.5-2l2.9-2.8l-4.9-0.5
	l1.7-1.1l3.9,0.2l2.699-3.301l4.601-1.8l2.8-1.899l-4.9,0.3L177.2,266l1.3-3.899l3.7-1l-2.7-2.4l-8-0.6l-1.5-0.4l0.1-3.6l2.101-0.5
	l1.5-4.2l-4.601-0.9l0.7-3.1l1.6-1.6l5.801,0.6l10.6,0.6l4.2-5.699l-6.8-1l5.399-6.2l7.4-2l1.899,6.8L196,238.1l1.6,1.5l-4.2,2.1
	l0.7,1.601l5.3,2.6l4.5-1.2l1.9-2.2l5.1,3.101l0.5,1.7l3.801-0.4l1.1,1.4L216.7,248.7L216.7,248.7L216.7,248.7L216.7,248.7z"/>
<path id="UK" fill="none" stroke="#656565" stroke-width="0.4252" stroke-miterlimit="1" d="M288.9,255l3.801,2.5l1.699,4.601
	l-2.1,3.6l3.4,0.9l3.3-2.2l9.3,1.399l2.8,3.9l-0.1,5l-5,4.3l-5.4,3.9l-4.3,2.8l9.8,0.5l1.1,3.4l-4,2.199L301,293.2l-4.7,1.4
	l-3.8,1.1l-8-0.4l-3.101,0.5l-5.2-0.699L266.3,296.3l0.2,1.801l-5.801,0.2l-3.6-1.601l-4.6,0.5l-3,0.6l-2.4,5.101l-3.3-0.1l-3.4-1.9
	l-8.1,2.4l-5.2,3.399l-1.4-1.2l-2.899-0.8l4.1-2.399l7-4.9l3.7-5.3l2.101-0.801l1.5-2.3l5.199-0.3l8.301,0.1l1.899-3.199v-2.2
	l-7.3,1.6l-5.8-2.1l-11.2-1.101l-3.4-1.699l2.301-2.9l4.699-1.2l4.801-2.399l1.5-4.601l-0.4-3.3l-4.9-0.4l0.601-2.3l4.5-2.6l8.8-1.2
	l5.7-0.5l-1.4-5l1.4-4.6l-0.3-3.301l-4.601-0.5l-2.5-3.399l2.101-4l-2.601-3.5l-4.8,2l-5.5-1l-4.4,2.1l-2.6-0.8l0.4-4l2.399-3.2
	l0.9-2.899L232.8,222l2.9-2.8l-2.4-2l-3.8,2.7L225.4,221.8L224.7,217.9l2.399-4.2l0.2-3.8l-3.4,1.1l-3.6,1.3l0.1-3.699L222,206.8
	l1.8-2.899l-0.9-3.601l2.2-0.8l-2.7-4.5l3.101-2l4.7,0.3l-1.5-3.399l1.1-2.4l2.3-0.899L231.6,182l4.5,0.8l3.3,0.4L254,182.1l0.3,2.6
	l-5.1,2.8l-7.2,4.3l-1.4,2.9l3.101,1.4l7.1-0.5l15,0.1l1.3,4.2l-2,3.2l-1.5,3.699l-3.399,3.9l-5.601,3.4l3.5,1.699l-2.2,1.7l-3.6,1
	l-5,0.4l-1.2,0.8l4,1l4.2-0.2l6.7-0.2l7.8,5.101l2.4,1.899l1.3,5.801l2.1,4.1l5.601,2.5l3.899,3.3l3.601,4L288.9,255L288.9,255
	L288.9,255z M222.8,228.5l-0.4-3.2l2.101-1.3l0.8,2.5l-0.3,0.8L222.8,228.5L222.8,228.5z M216.7,248.7L215.4,247l-3.8,0.4l-0.5-1.7
	l-5.1-3.1l-1.5,2.1l-5,1.4l-5.3-2.601l-0.7-1.6l4.2-2.101l-0.9-0.899L196,238.3l3.899-1.199l1.4-2.101l0.3-1.5l1-1.1l5.2-1.601
	l5.9,0.101l3.8,0.2l3.7,5.6l0.3,2.9l0.8,5.6l-2,2.2L216.7,248.7L216.7,248.7z"/>
<path id="DE" fill="none" stroke="#656565" stroke-width="0.4252" stroke-miterlimit="1" d="M381.343,341.839l0.257-8.438l3.8-7.8
	l3.301-4.101l-2.9-0.899l-7.2-1.4L371,317V313.6l-1.2-3.7l-2.8-1l-2.4-3.2l2.4-4.399L363.4,295.3L363.2,291.6l1.6-1.2l1-4.8
	l-2.5-4.4l1.9-1.4l8.199-1.699l2.4-3.9l-0.5-3.4L373,271l-0.101-2.8h2l2.9-4.9l-0.4-2.899L375.5,258.3l0.5-2.899l4.899-1.601l6-0.1
	l1.301,1.7l2.5-0.4l3.699-3.899l4.301-0.801l-1.4-4.5l-3-1.399l1.8-0.9l-0.6-5.699L395,235.5l5.399-0.8H406l3,2l2.899,5.101l6.5,2.3
	l5.2-0.3l0.3,2.6l-0.1,3l6.6-1.8l13.1-4.2l3.5,0.5l3.2,2.3l6.5,3.101l6.9,4.5l1,6l-3.2,5.399l2,1.101l3,2.8v3.8l2,2.8l-1.5,4.2
	l5.9,4.5l-1,4.3l-6.9,2.1l-1.7,0.801l0.7,1.3l-7.4,2.5l-5,1.2l-11,4.8l-1.699,2.1l3.1,3.9l-0.7,3.5l2.9,3.8l4.1,2l2.9,3.3l4.6,1.7
	l3.5,4.7l-6.8,0.9l-1,3.1l-7,4.1l3.8,6.7l-0.6,1.101l-0.5,0.8L445.4,343l-0.7-2.1l-7-0.5l-1.7,1.3l-4.5-0.3l-3.5,2.5l-2.699,0.6
	l-2.7,0.101L420.9,342l-4.2,0.601l-1.3,2.8l-2.5,0.3L412,344.2l-2.801-2.1l-3.699,0.3l-3.7-1.7h-3.101l-4.199-1.1l-1.601,0.6
	l-2.1,1.9l-1.8-0.7l-5.7,1.1L381.343,341.839L381.343,341.839z M461.5,250.6l-2.301-0.801l-1.6-1.199l0.9-1.2l1.8,0.6L461.5,250.6
	L461.5,250.6z"/>
<path id="UA" fill="none" stroke="#656565" stroke-width="0.4252" stroke-miterlimit="1" d="M576.3,282.8l4.1,0.601l5.8-5l2.5,0.5
	l8.4-0.3l8.3,0.399l12.1,2.2l1.5,1.8h4l1.4,2.101l5.7-2.301l6.4,2.801l3.8-2.4l2.399,2l4.7-0.1l1.601,0.6l4.5-0.6l2.8,2.3l2.1,0.3
	l0.2-5.7l4-4.3l7.2-1.9l2.5-0.5l5.2,1.5l3.699-4.399l5.101,1.399l3.6-2.199h7.1l6.101,7.1l-1.5,4l2.7,5.8l7.699,0.3l3.5,3l1.4,5.9
	l1.4,2.601l4.399,0.1l0.9-0.2l6.2,2l7.399-0.7l3.301-0.699l2.6,2.8l6.4,3.8l2-1.4l4.899,2l5.3,1.2l8.801,4l1.8-0.7l1.399,4.101
	l-1.3,2.2l-3.5,1.699l1.8,3.801H768.8l-0.4,2.6l2.2,4.1l-1.3,6.9h-7.8l-6.301,3l-3.899-0.3l-3.7,8.3l-9.4,3.3l-13.6,2.601
	l-5.2,2.899l-5.2-1.1L713,359l-2.801,2.4H702l0.3,3.5l9.899,6.7l2.101,3.7l2.899-0.4l7.801-1.4l5.3,0.9l-2.5,3.6l-3.7,1.4l-9.4,1.1
	l-4.1,1.801l-7.2,2.5l-5.5,2.6l-5.2-1.5l1.8-5.9l-1.6-3.5l-4.4-1.8l-5.6,0.101l0.2-2.101l2.6-1.7l2.9-1.6l6.6-2.9l-0.2-1.5
	l-2.5-1.899l-5.8,0.3l-7.899-0.5l-3.7-3.5l2.5-3.1l-2.5-3.101l-8.4,2.7l-4.2,1.2L659.3,360.5l-7.601,7.4l-3.5,1.1l-1.6,5.101
	l-1.7-0.5l-1.8-0.101l-3.9,1.601L637.4,375l-4.2,0.601l-2-2.4l1.9-0.5l0.7-2.5l2.699-2.8l1.9-1.4l1.1-1.899l-0.8-4.601l3-1.899
	l1.601,2.3l0.899-1.1l3.5,0.899l2.8,0.7l2-0.3l-1.8-2.7l0.601-1.6l-1.301-2.4l-3.1-2.7l-0.4-2.2L646.1,346l-3.601-1.199l-0.899-2.4
	l-0.2-5.7l-3,0.2l-2.8-2.9l-3.3,0.2l-0.601-1.399l-1.8,0.1l-4.1-2.5l-6.101-0.5l-1.399,1l-3.9-0.4l-1.1,1l-4.8,1.301l-1.301,1.6
	l-3.399,2l-6.9,0.7l-5.1,2.7L589.199,339l-1.6-2.1l-8.7-1l-6.2,0.3l-8.199-2.7l-7.2-3.699l5.6-9.2h1.9L564.4,313l6.1-6.399l7-5.7
	l2.301-0.3l1.3-1.2l-1.3-4.5l1.5-1.101l-5.9-6.8l-0.8-3.3L576.3,282.8z"/>
<path id="MD" fill="none" stroke="#656565" stroke-width="0.4252" stroke-miterlimit="1" d="M614.6,330.4l3.9,0.4l1.399-1l6.101,0.5
	l4.1,2.5l1.8-0.101l0.6,1.4l3.301-0.2l2.8,2.9l3-0.2l0.2,5.7l0.899,2.399l3.601,1.2l0.8,4.7l3.1,2.7l1.3,2.399l-0.6,1.601l1.8,2.699
	l-2,0.301l-6.3-1.7l-0.9,1.1l-1.6-2.3l-3,1.9l0.8,4.6l-1.1,1.9l-1.9,1.399L634,370l-0.7,2.5l-1.101,0.101L630,372.4l-0.4-3.6
	l0.1-6.301l0.3-9.199l-5.899-7l-8.101-12.9l-2.699-1.9L614.6,330.4z"/>
<path id="PL" fill="none" stroke="#656565" stroke-width="0.4252" stroke-miterlimit="1" d="M561.3,318.801L555.699,317l-4.5-2.399
	h-2.8l-1.8-0.2l-3.8,2.1l-2-1.3l-5.101,0.101l-2.399,2.1l-2.3,0.601l-2.801-2.9l-2.6-2.2l-3.1,1.3l-2.2,0.7l-3-3.1l-2.9-2.601
	l-1.3-2.1l-4.8-1.5l-2.7,0.6l-2.3-2.7l-0.8-1.6l-5.101-1.3L495,300.4l0.199,2.7l-3.899,1.2l-4.101-3.601l1.601-3.5l-2.101-0.7
	l-3.1,0.2l-3.2-1.6l-4.5-1.601L474,291.4l-2.801,1.899l-2.1,1l-4-3l6.9-2.1l1-4.3l-5.9-4.5l1.5-4.2l-2-2.8v-3.8l-3-2.801l-2-1.1
	l1.8-2.8l1.4-2.601l-1-6l2.3,0.601l1.5-5.601l15.3-2.8l11.601-5.7l18-2.6l1.199,0.8l2.5,5.601l13.2-2.9L524,246.1l8.1-4.5l36.1,0.6
	l4,1.9l2.601,5.6l6.2,16.4l-8.4,4l2.2,5.1l0.399,8.7l0.801,3.3l5.899,6.8l-1.5,1.101l1.3,4.5l-1.3,1.2l-2.3,0.3l-7,5.7L565,313.2
	l0.399,7.601h-2.1L561.3,318.801z M464.3,250.8l-0.9,0.801l-0.7-0.101l-0.1-2l0.3-0.2l2.3,0.4L464.3,250.8L464.3,250.8z"/>
<path id="IS" fill="none" stroke="#656565" stroke-width="0.4252" stroke-miterlimit="1" d="M0,78.8L3.9,76.5L11.2,76l-1.7-6
	l4.5,1.8l6.6,0.4l-2.1-6l15.1,4.3L33,78.7l7.1,3l8.8-4.4l-0.5-4.5L51.7,71.1l8.5,5.399l3.399-5.2L71.2,73.9L75.4,72.3l6-0.5l7.9,0.2
	l5-2.1l4.7-4.3l7.7,4.199l8.1,2.4l3.3,6l9.4,1.5l-1,9.9l-3.2,1.1l-3.8,0.8l-2,4l-9.8,1.7L92,104.6L81.8,105.5l-4.7,2.8L72.7,110.6
	L63.8,111L46,105.7L27,105l-4.5-2.7l10-6L25.4,94.5L18.2,92.4L11.7,93l-4-0.5l5.3-3.6l6.899-0.5l7.5-1.2l-0.6-6l-13.7-0.8L7.7,81.9
	L2.3,80.8L0,78.8L0,78.8z"/>
<path id="DK" fill="none" stroke="#656565" stroke-width="0.4252" stroke-miterlimit="1" d="M389.8,207l1.5-2.399l4.7-2.101l6.1-0.7
	l5.4-3.699l3.899-3l5-0.7l1.5-1.2l-0.8,5.4l-1.399,3.8l-3.9,1.8l-4.8,0.2l-4.9-0.4l-6.3,4.3l-2.5,1.301L389.8,207L389.8,207z
	 M405.5,234.3L395,235l0.2-3.1L391.9,226.8l-3.3-0.6l1.7-3.1l0.8-2.5L389,216.8l0.399-2.3l1.601-2.6l5.1,1l2.5-3.3l3.3,2.199
	l2.301-5.699l2-0.5l8.3,1.1l0.6,3.8l4.9,1.5l1.899,3.4l-2.8,2.399L414.7,217v2.3L412.4,223.1l-3.6,1.3l-1.9,3.3l-0.699,2.9
	L405.5,234.3L405.5,234.3z M435.3,234l-1.7-2.399l-5.3-0.9l-2.101-2.4l0.101-4.6l4.399-2.5l2.2,2.6l2.9-0.199l1.899-4.7l3,6.1
	l-2.3,2.101l1.7,3.2L435.3,234L435.3,234L435.3,234z"/>
<path id="BY" fill="none" stroke="#656565" stroke-width="0.4252" stroke-miterlimit="1" d="M574.4,249.3l9.2,0.5l6-1.8l4.7-3.6
	l6.6,1.5l-0.8-5.7l3.6-6.2l6.801-2.3l-0.601-3.3l0.9-4.9l8.399-1.899l6.101-3.2l5-2.9l6.2,2.9l7,0.5l3.1,4.399l6.8-2L661,224.6
	l2.399,6.1l-0.5,6l3.2,4.3l6.2,5.4l3.3,4.7l5.4,2.199l1.899,4.601l-15,5.1l1.9,2.101l1.7,7.1l-1.2,3.7l-7.2,1.899l-4,4.301
	l-0.2,5.699l-2.1-0.3l-2.8-2.3l-4.5,0.601L647.9,285.2l-4.7,0.101l-2.399-2L637,285.7l-6.4-2.8l-5.7,2.3l-1.399-2.1h-4l-1.601-1.8
	L606,279.1l-8.2-0.3L589.199,279l-2.5-0.5l-5.699,5l-4.101-0.6l-1.6,0.6l-0.4-8.699l-2.2-5.101l8.4-4.1L574.4,249.3L574.4,249.3z"/>
<path id="LT" fill="none" stroke="#656565" stroke-width="0.4252" stroke-miterlimit="1" d="M564.5,241.8V237.9l0.899-2.8L562.1,233
	l-12.2-2.399l-3.5-2.301l-2.6-10l2.2-0.899l7.199-3.8l10.601-0.5l6.8,0.1l11,1.5l8.1-2l6.5,3.7l7.5,3.1l6.9,4l-0.9,4.9l0.601,3.3
	l-6.8,2.3l-3.601,6.2l0.8,5.7l-6.6-1.5l-4.7,3.6l-6,1.8l-9.2-0.5l-2.6-5.6l-4-1.9H564.5L564.5,241.8z"/>
<path id="LV" fill="none" stroke="#656565" stroke-width="0.4252" stroke-miterlimit="1" d="M621.4,196.3l4.601,3.4l-2.4,6.7
	l4.2,2.5l2.399,6.7l-5,2.899l-6.1,3.2l-8.4,1.9l-6.8-3.9l-7.6-3.1l-6.5-3.7l-8.2,2.1l-10.9-1.5l-6.8-0.1l-10.6,0.5l-7.2,3.8
	l-2.7-6.9l4.5-7.399L553,197.3l9.699-2.1l6.301,5.7l10.5,4.5l4.399-6.101l0.3-7.6l9.301-2.9l5.899,2.2l6.601,2.8l6.5,2l6.399,1.2
	L620,196.6h0.3L621.4,196.3z"/>
<path id="EE" fill="none" stroke="#656565" stroke-width="0.4252" stroke-miterlimit="1" d="M631,166.3l-4.5,5.2l-5.5,7.2l0.6,7.7
	l2.9,5.3l-3.101,4.5H620l-1.101,0.4l-6.1-1.301l-6.5-1.699l-6.9-2.9l-6-2.2l-9.3,2.9l-1.3-5.5l-6.7-1.2l-3.5-6.1l1.3-5.801
	l7.8-1.899l6.801-1.4l7.6-1.1l7.4-0.4l13.5,2l11.199-2L631,166.3z"/>
<path id="SE" fill="none" stroke="#656565" stroke-width="0.4252" stroke-miterlimit="1" d="M579.4,75l-9.8,1.2l-8.5-1.9l-9.6,6.9
	l-1.601,5.2l-6.5,4.8l3.5,5.5l-9.6,8.9l-9.7,4.5l-7.2,3.1l-8.8,5.9l-4.4,3.5l-7.8,1.6l1.5,9.7l-3.7,6.399l2,9l5.601,2.5l7.7,5.2
	l7,4.601l-4.4,5l-11,1.899l-11.3-1.899L492,167.8l7.6,2.801l7.3-0.101l7.101-1.7l-2.2,3.801l-7.2,3.6l-3.1,1.1l-6.7,2.601l-4.5,3.5
	l1.2,7.8L490.4,196l-2,8.7l-5.2,10.2L476.3,216.8l-8.8,0.2l-5.9,5.8l-2.8,4.801l-10.8,1l-0.5-4.9l-6.9-8.5l5.4-3.8l-5.9-5l-6-7.101
	l-2.8-8.1l-2.2-4.8l-3.5-6.7l1.9-4.6l4.6-3.2l1.8-8.101l6.8-4.899l-0.8-9.4l2.9-4.5l-1.601-6.8l-3.8-7L435,122l2.5-11.5l16.899-8.2
	l7.101-3.1l-4.7-6.4l9.5-17.6l6.1-4.1L486.9,59.3l1.5-8.3l12.101-6.7l8.699-2.899L514,36.8l16.3,3.4l3.899-11.7l7.2,0.101l12.2,8.1
	l15.1,3.8L573.8,47.6l3.5,9.199l-0.3,9.4l1.3,4.2L579.4,75L579.4,75L579.4,75z"/>
<path id="NO" fill="none" stroke="#656565" stroke-width="0.4252" stroke-miterlimit="1" d="M425.8,173.6l-6.8-3.2l-2.8-1.101
	l-4.4,6l-8,1.601l-6.4,5.3l-7.8,5.2l-7.399,1.5l-8.101-0.7l-3.1-1.5l-12-4l-1.2-7.6l6.9,2.5l-0.301-2.7L364,171.7l-0.601-2.5
	l-2.199-0.9l-4.7,2.4l-3.9-3.6l4.3-1.801l5.5-1L361.5,163.6l0.1-4L355.5,158l1.7-4.7l-5-2.399l3.6-6.2l-2.7-6.9l5.601-4.1l-1.5-2.8
	l5.899-4.2l7.4-2.7l7.399-0.8l0.601-2.5l1.1-3.4l10.9,1l4.5-7.1l8-0.2l6.899-6.2l10-8.699l7.9-0.9l4.3-5.3l6.399-4.8l1.4-4.7
	l4.4-7.1l6.3-3.5l0.7-3.5l3.699-4l2-3.7l7.801-2.8l1.899-3.4l8.8-2.3l4.7-3.5l4.101-4.7l7.199,0.1l2.9-4.2l1-4.3l6.7-4.7l7-1.8
	l6.4-3l8.399,0.8L533,18l1.6,4.101l5.7-4.801l7.8-3.699l7.2,2l7.3-5.2l8.3,3.3l9.6-7.7l7.4-4l14.3-1.899L593.6,7.5L598,9.1l13.6-9.2
	l2.5,7l8.9-7.8l9.1,0.399l-5,7.3l6.3-2.1l8.1-3.3l16.4,4.1l0.9,4.601L638,11.3l5.5,3.301L651.4,17.5l13.5,1.101L650.9,23l-14.3,9.4
	l5.2-10.4l-7.3-4l-12.301-2.8l-17.399,4l-4.601,9.9l-7.3,4.8l-7.5,0.2l-8.6-1.301L561.199,32.1L548.8,24l-7.8,4.7l-7.2-0.1L530,40.3
	L513.699,36.9l-4.8,4.6l-8.7,2.9L488.1,51l-1.5,8.3L471.8,71.1l-5.8,4.5L456.699,92.8l4.7,6.4L437.5,110.5L435,122l2.5,9.2l3.8,7
	l1.6,6.8L440,149.5l0.8,9.4L434,163.8l-1.801,8.101l-4.6,3.2L425.8,173.6L425.8,173.6z"/>
<path id="FI" fill="none" stroke="#656565" stroke-width="0.4252" stroke-miterlimit="1" d="M636.5,32.4l-1,8.8l12.6,5.3l1.4,5.9
	l-9,6.5L652,75.5l-4.301,10.9l5.5,8.2l3.4,5l-4.2,7.3l15.9,9.8l-4.9,11.7l-29.1,20.8l-7.9,3.6l-8,0.7l-7.3,1.101l-3.6,1.5l-6.9,1.1
	L593,159l-7.301,2.101l-7.5,0.5l-8.6,0.6l-3.9-5.1L560.1,156l-8-2.5L550,142.1l-3.9-10.601l0.7-6.8l0.8-5.8l5.3-5.4l7.4-1.899
	l4.6-4.101l8.601-6.2l13.1-9.699l9.4-2L594.699,82l-6.6-3.8l-8.6-3.2l-2.7-8.6l0.3-9.4l-3.5-9.199l-5.1-7.101L553.4,36.9L541,28.7
	l7.699-4.7l12.4,8.2l15.6,0.7l8.601,1.3l7.5-0.2l7.3-4.8l4.6-9.9l17.4-4l12.3,2.801l7.3,4L636.5,32.4L636.5,32.4L636.5,32.4z"/>
<path id="RU" fill="none" stroke="#656565" stroke-width="0.4252" stroke-miterlimit="1" d="M851.199,61.2v364.3l-1-1.1l-2.699-0.3
	L843.3,422l-1.101-3.199v-2.5l-4.6-1.101l-4.5-2.399l-2,1.399l-4.5-1.3l-2.5,2.1l-5-0.399l0.6-1.7l-9.199-4.2l-1.4-1.6l-3.6-0.3
	l-2.101-0.9l-9.3,0.3l-3.7-2.1h-2.7l-4.1-1.9l-3.3-0.7l-4.9-0.399L773,403.2L754.6,389l-7.7-4.8l-6.8-3l-1.1-5.7l5.8-3.899l5.8-6.5
	l-0.9-5.3l-1.1-4.2L763,350l-5-2.6l-6.9-0.4l4.5-6l6.3-3h7.8l1.3-6.899L768.8,327l0.399-2.6h1.9l-1.8-3.8l3.5-1.7l1.399-2.3
	l-1.399-4l-1.9,0.7l-8.8-4l-5.3-1.2l-4.9-2l-2,1.399l-6.4-3.8l-2.6-2.8l-3.3,0.7l-7.4,0.7l-6.2-2l-0.899,0.2l-4.101-0.101l-1.8-2.6
	l-1.399-5.9l-3.5-3l-7.7-0.3l-2.7-5.8l1.5-4L701,276l-3.801-4.399h-7.1l-3.6,2.199L681.4,272.4l-3.7,4.399l-5.199-1.5l-2.5,0.5
	l1.199-3.699L669.5,265l-1.9-2.1l5.9-2l9.1-3.2l-1.9-4.6l-5.399-2.2l-3.3-4.7l-6.2-5.4l-3.2-4.3l0.5-6l-2.2-6.2l-7.8-3.3l-6.8,2
	l-3.101-4.399l-7-0.5l-6.3-3l-2.3-6.601l-4.2-2.5l2.4-6.7l-4.601-3.399l3.101-4.5l-2.9-5.3l-0.6-7.7l5.1-6.7l2.9-3.8l1.899-2
	l6.5-1.5l6.9-2.9l9.3,0.9l-10.8-4.7l-9.6-3.1l2.199-6.7l27.9-20l4.9-11.7l-15.9-9.8l4.2-7.3l-8.9-13.2l4.3-10.9l-11.3-16l9-6.5
	L648,46.6L635.4,41.3l1-8.8L642.5,28.6l8.199-5.5l14-4.4l12.2-3.6l11.3,7.3l5.9,3.399l10.2-0.199l19.7,2l25.199,9l27.2,9L784,50.2
	l3.399,8.2L773,68.7L741.9,70.6L713,65.5L693.6,61.6L679.3,57.3l6.5,5.301l16,7.399l7.3,7.601l-4.2,5.6l5.3,11.4L722.3,98
	l7.199,5.101L741.4,105l7.7-4.1l-7.1-4l-10.801-6.8l7.301-4l24.8,7.8l9.7-0.4l4.5-4.1l-7-9.2l10.3-5.3l16.2-7.7l10.399,0.2l13.7,4.3
	l4.2-9.4l-4.8-7.1l0.199-5.8l2-8.3L820.3,35.3l14.6,1L845.5,39.6l5.8,5.8V47L833.4,49.6l2.8,5.699l8.3,5L851.199,61.2L851.199,61.2z
	 M562.4,233l-12.2-2.399l-2.399-1.4l-2.2,6.1l-14,0.2l0.3,4.4l-0.3,1.1l32.8,0.601v-3.9l0.9-2.8L562.4,233z"/>
<g id="innerMap">
</g>
</svg>
